<svg width="45" height="45" viewBox="0 0 45 45" fill="none" xmlns="http://www.w3.org/2000/svg">
<circle cx="22.5" cy="22.5" r="19.6875" fill="#105DFB"/>
<path fill-rule="evenodd" clip-rule="evenodd" d="M13 29.4346V17H18.771C20.6246 17 22.1273 18.4968 22.1273 20.3431C22.1273 21.5164 21.7651 22.2432 20.437 22.9888C22.0262 23.7101 22.4676 24.7097 22.4676 26.104C22.4676 27.9903 20.7853 29.4346 18.8917 29.4346H13ZM15.442 19.0583V22.0484H18.3001C18.3001 22.0484 19.6893 22.0484 19.6893 20.5534C19.6893 19.0583 18.3001 19.0583 18.3001 19.0583H15.442ZM15.442 27.3287V24.1001H18.5077C19.0027 24.1001 20.0406 24.3545 20.0406 25.8814C20.0406 27.0138 19.0187 27.3181 18.5077 27.3287H15.442Z" fill="white"/>
<path fill-rule="evenodd" clip-rule="evenodd" d="M27.6889 20.4261C25.9325 20.4261 23.3298 21.6826 23.3298 25.0225C23.3298 27.0563 24.4475 29.6667 27.8006 29.6667C30.4831 29.6667 31.7179 27.7051 32 26.7243H29.4772C29.3494 27.1697 28.8545 27.6627 27.8006 27.6627C26.2678 27.6627 25.7249 26.3585 25.6451 25.7064H32V25.0225C32 21.6826 29.4452 20.4261 27.6889 20.4261ZM27.6889 22.3347C26.2582 22.3347 25.7302 23.5116 25.6451 24.1001H29.4772C29.4772 23.5116 29.1195 22.3347 27.6889 22.3347Z" fill="white"/>
<path d="M24.6391 17.7064V19.2492H30.6588V17.7064H24.6391Z" fill="white"/>
</svg>
