<svg width="40" height="40" viewBox="0 0 40 40" fill="none" xmlns="http://www.w3.org/2000/svg">
<g clip-path="url(#clip0_410_272)">
<circle cx="14.5" cy="14" r="19.5" fill="#D9D9D9"/>
<path d="M-7.14307 7.55562C-7.14307 -0.0895372 -7.14307 -3.91212 -5.65522 -6.83218C-4.34647 -9.40074 -2.25817 -11.489 0.310396 -12.7978C3.23046 -14.2856 7.05304 -14.2856 14.6982 -14.2856H32.4442C40.0894 -14.2856 43.912 -14.2856 46.832 -12.7978C49.4006 -11.489 51.4889 -9.40074 52.7977 -6.83218C54.2855 -3.91212 54.2855 -0.0895372 54.2855 7.55562V25.3017C54.2855 32.9468 54.2855 36.7694 52.7977 39.6895C51.4889 42.258 49.4006 44.3463 46.832 45.6551C43.912 47.1429 40.0894 47.1429 32.4442 47.1429H14.6982C7.05304 47.1429 3.23046 47.1429 0.310396 45.6551C-2.25817 44.3463 -4.34647 42.258 -5.65522 39.6895C-7.14307 36.7694 -7.14307 32.9468 -7.14307 25.3017V7.55562Z" fill="white"/>
<path d="M27.0738 11.7803L20.0759 17.2415L12.918 11.7803V11.7817L12.9266 11.7891V19.4364L19.9952 25.0157L27.0738 19.6519V11.7803Z" fill="#EA4335"/>
<path d="M28.9105 10.4516L27.0728 11.78V19.6516L32.8556 15.2118V12.5372C32.8556 12.5372 32.1536 8.7173 28.9105 10.4516Z" fill="#FBBC05"/>
<path d="M27.0728 19.6515V29.8611H31.505C31.505 29.8611 32.7662 29.7312 32.857 28.2936V15.2117L27.0728 19.6515Z" fill="#34A853"/>
<path d="M12.9269 29.8703V19.4363L12.918 19.429L12.9269 29.8703Z" fill="#C5221F"/>
<path d="M12.9172 11.7806L11.0896 10.4596C7.84646 8.72524 7.14307 12.5437 7.14307 12.5437V15.2182L12.9172 19.4278V11.7806Z" fill="#C5221F"/>
<path d="M12.918 11.7817V19.429L12.9269 19.4364V11.7891L12.918 11.7817Z" fill="#C5221F"/>
<path d="M7.14307 15.2209V28.3029C7.23243 29.742 8.49508 29.8704 8.49508 29.8704H12.9273L12.9172 19.4291L7.14307 15.2209Z" fill="#4285F4"/>
</g>
<defs>
<clipPath id="clip0_410_272">
<rect width="40" height="40" rx="20" fill="white"/>
</clipPath>
</defs>
</svg>
