<svg width="32" height="32" viewBox="0 0 32 32" fill="none" xmlns="http://www.w3.org/2000/svg">
<rect x="1" y="1" width="30" height="30" rx="15" fill="#FFD663"/>
<path fill-rule="evenodd" clip-rule="evenodd" d="M1.07406 14.5C1.02508 14.9934 1 15.4938 1 16C1 24.2843 7.71573 31 16 31C24.2843 31 31 24.2843 31 16C31 15.4937 30.9749 14.9934 30.9259 14.5C30.1733 22.08 23.778 28 16 28C8.22198 28 1.82665 22.08 1.07406 14.5Z" fill="#FFD04C"/>
<circle cx="5.5" cy="18.5" r="2.5" fill="#FF759B" fill-opacity="0.2"/>
<circle cx="26.5" cy="18.5" r="2.5" fill="#FF759B" fill-opacity="0.2"/>
<path fill-rule="evenodd" clip-rule="evenodd" d="M24.4287 20.0966C24.9276 20.3335 25.14 20.93 24.9031 21.4289C24.0069 23.3165 22.6172 24.3049 21.2245 24.7311C19.8712 25.1452 18.5506 25.0204 17.7072 24.7623C17.179 24.6007 16.8819 24.0416 17.0435 23.5134C17.2052 22.9853 17.7643 22.6882 18.2924 22.8498C18.8074 23.0074 19.7171 23.1008 20.6392 22.8187C21.5219 22.5485 22.4531 21.9261 23.0964 20.5711C23.3333 20.0722 23.9298 19.8598 24.4287 20.0966Z" fill="#52565F"/>
<path fill-rule="evenodd" clip-rule="evenodd" d="M20.0088 7.39108C19.6112 7.00773 19.5997 6.37467 19.9831 5.9771C20.8073 5.12233 22.0943 5.00507 23.0892 5.21566C24.0997 5.42955 25.2411 6.07128 25.6633 7.2648C25.8474 7.78547 25.5746 8.35685 25.0539 8.54101C24.5333 8.72517 23.9619 8.45237 23.7777 7.9317C23.6726 7.63457 23.2961 7.30377 22.675 7.1723C22.0383 7.03753 21.5802 7.20208 21.4228 7.36535C21.0394 7.76291 20.4064 7.77443 20.0088 7.39108Z" fill="#52565F"/>
<path d="M8.35484 19C16 19 14 11 16 11C18 11 17 19 24.1048 19C29.0645 19 29.879 14.7381 30 12L31 11.3809V9H24.4677C20 9 19 10 16 10C13 10 11.9355 9 7.96774 9H1V11.5L2 12C2 15 3.06452 19 8.35484 19Z" fill="#52565F"/>
<path d="M9 10.0001L4 16.0001C4 16.0001 4.54592 16.6857 5 17.0001C5.35899 17.2486 6 17.5001 6 17.5001L11 10.5C11 10.5 10.6667 10.1483 10 10.0001C9.61879 9.91529 9 10.0001 9 10.0001Z" fill="#5F646F"/>
<path d="M25 10L20 16C20 16 20.5459 16.6856 21 17C21.359 17.2485 22 17.5 22 17.5L27 10H25Z" fill="#5F646F"/>
</svg>
