<svg width="39" height="39" viewBox="0 0 39 39" fill="none" xmlns="http://www.w3.org/2000/svg">
<rect width="39" height="39" rx="19.5" fill="url(#paint0_radial_409_264)"/>
<rect width="39" height="39" rx="19.5" fill="url(#paint1_radial_409_264)"/>
<rect width="39" height="39" rx="19.5" fill="url(#paint2_radial_409_264)"/>
<path d="M26 13.5C26 14.3284 25.3284 15 24.5 15C23.6716 15 23 14.3284 23 13.5C23 12.6716 23.6716 12 24.5 12C25.3284 12 26 12.6716 26 13.5Z" fill="white"/>
<path fill-rule="evenodd" clip-rule="evenodd" d="M19 24C21.7614 24 24 21.7614 24 19C24 16.2386 21.7614 14 19 14C16.2386 14 14 16.2386 14 19C14 21.7614 16.2386 24 19 24ZM19 22C20.6569 22 22 20.6569 22 19C22 17.3431 20.6569 16 19 16C17.3431 16 16 17.3431 16 19C16 20.6569 17.3431 22 19 22Z" fill="white"/>
<path fill-rule="evenodd" clip-rule="evenodd" d="M9 18.6C9 15.2397 9 13.5595 9.65396 12.2761C10.2292 11.1471 11.1471 10.2292 12.2761 9.65396C13.5595 9 15.2397 9 18.6 9H19.4C22.7603 9 24.4405 9 25.7239 9.65396C26.8529 10.2292 27.7708 11.1471 28.346 12.2761C29 13.5595 29 15.2397 29 18.6V19.4C29 22.7603 29 24.4405 28.346 25.7239C27.7708 26.8529 26.8529 27.7708 25.7239 28.346C24.4405 29 22.7603 29 19.4 29H18.6C15.2397 29 13.5595 29 12.2761 28.346C11.1471 27.7708 10.2292 26.8529 9.65396 25.7239C9 24.4405 9 22.7603 9 19.4V18.6ZM18.6 11H19.4C21.1132 11 22.2777 11.0016 23.1779 11.0751C24.0548 11.1467 24.5032 11.2766 24.816 11.436C25.5686 11.8195 26.1805 12.4314 26.564 13.184C26.7234 13.4968 26.8533 13.9452 26.9249 14.8221C26.9984 15.7223 27 16.8868 27 18.6V19.4C27 21.1132 26.9984 22.2777 26.9249 23.1779C26.8533 24.0548 26.7234 24.5032 26.564 24.816C26.1805 25.5686 25.5686 26.1805 24.816 26.564C24.5032 26.7234 24.0548 26.8533 23.1779 26.9249C22.2777 26.9984 21.1132 27 19.4 27H18.6C16.8868 27 15.7223 26.9984 14.8221 26.9249C13.9452 26.8533 13.4968 26.7234 13.184 26.564C12.4314 26.1805 11.8195 25.5686 11.436 24.816C11.2766 24.5032 11.1467 24.0548 11.0751 23.1779C11.0016 22.2777 11 21.1132 11 19.4V18.6C11 16.8868 11.0016 15.7223 11.0751 14.8221C11.1467 13.9452 11.2766 13.4968 11.436 13.184C11.8195 12.4314 12.4314 11.8195 13.184 11.436C13.4968 11.2766 13.9452 11.1467 14.8221 11.0751C15.7223 11.0016 16.8868 11 18.6 11Z" fill="white"/>
<defs>
<radialGradient id="paint0_radial_409_264" cx="0" cy="0" r="1" gradientUnits="userSpaceOnUse" gradientTransform="translate(13.9286 29.25) rotate(-55.3758) scale(35.5452)">
<stop stop-color="#B13589"/>
<stop offset="0.79309" stop-color="#C62F94"/>
<stop offset="1" stop-color="#8A3AC8"/>
</radialGradient>
<radialGradient id="paint1_radial_409_264" cx="0" cy="0" r="1" gradientUnits="userSpaceOnUse" gradientTransform="translate(12.5357 40.3929) rotate(-65.1363) scale(31.4706)">
<stop stop-color="#E0E8B7"/>
<stop offset="0.444662" stop-color="#FB8A2E"/>
<stop offset="0.71474" stop-color="#E2425C"/>
<stop offset="1" stop-color="#E2425C" stop-opacity="0"/>
</radialGradient>
<radialGradient id="paint2_radial_409_264" cx="0" cy="0" r="1" gradientUnits="userSpaceOnUse" gradientTransform="translate(-2.08928 1.39286) rotate(-8.1301) scale(54.1694 11.5863)">
<stop offset="0.156701" stop-color="#406ADC"/>
<stop offset="0.467799" stop-color="#6A45BE"/>
<stop offset="1" stop-color="#6A45BE" stop-opacity="0"/>
</radialGradient>
</defs>
</svg>
