<svg width="32" height="32" viewBox="0 0 32 32" fill="none" xmlns="http://www.w3.org/2000/svg">
<rect x="1" y="1" width="30" height="30" rx="15" fill="#FFD663"/>
<path d="M13.4198 7.85511C14.1866 10.717 11.5746 13.5259 8.86671 15.9769C5.29608 15.2082 1.62958 14.0817 0.86273 11.2198C0.454142 9.69488 0.856161 7.77059 3.13926 7.15884C5.42236 6.54708 6.85367 8.46418 6.85367 8.46418C6.85367 8.46418 7.13468 6.08827 9.41778 5.47651C11.7009 4.86476 13.0615 6.51801 13.4198 7.85511Z" fill="#FF759B"/>
<path d="M18.7257 7.85511C17.9589 10.717 20.5709 13.5259 23.2788 15.9769C26.8494 15.2082 30.5159 14.0817 31.2828 11.2198C31.6914 9.69488 31.2893 7.77059 29.0062 7.15884C26.7232 6.54708 25.2918 8.46418 25.2918 8.46418C25.2918 8.46418 25.0108 6.08827 22.7277 5.47651C20.4446 4.86476 19.084 6.51801 18.7257 7.85511Z" fill="#FF759B"/>
<circle cx="7.5" cy="19.5" r="2.5" fill="#FF759B" fill-opacity="0.2"/>
<circle cx="24.5" cy="19.5" r="2.5" fill="#FF759B" fill-opacity="0.2"/>
<path d="M16 24C18.2091 24 20 22.2091 20 20V16H12V20C12 22.2091 13.7909 24 16 24Z" fill="#810024"/>
<path fill-rule="evenodd" clip-rule="evenodd" d="M12.5352 22C13.2268 20.8044 14.5195 20 16 20C17.4806 20 18.7733 20.8044 19.4649 22C18.7733 23.1956 17.4806 24 16 24C14.5195 24 13.2268 23.1956 12.5352 22Z" fill="#FF759B"/>
<path d="M13 16H19V17C19 17.5523 18.5523 18 18 18H14C13.4477 18 13 17.5523 13 17V16Z" fill="white"/>
<path fill-rule="evenodd" clip-rule="evenodd" d="M1.07406 14.5C1.02508 14.9934 1 15.4938 1 16C1 24.2843 7.71573 31 16 31C24.2843 31 31 24.2843 31 16C31 15.4937 30.9749 14.9934 30.9259 14.5C30.1733 22.08 23.778 28 16 28C8.22198 28 1.82665 22.08 1.07406 14.5Z" fill="#FFD04C"/>
</svg>
