<svg width="1406" height="195" viewBox="0 0 1406 195" fill="none" xmlns="http://www.w3.org/2000/svg">
<g filter="url(#filter0_d_327_278)">
<path d="M8.23344 7.99315C8.37796 5.23551 10.7306 3.11716 13.4883 3.26168L1386.71 75.2291C1389.47 75.3736 1391.58 77.7263 1391.44 80.484L1386.47 175.354C1386.32 178.111 1383.97 180.23 1381.21 180.085L7.99299 108.118C5.23535 107.973 3.117 105.621 3.26152 102.863L8.23344 7.99315Z" fill="#FF006B" shape-rendering="crispEdges"/>
<path d="M153.751 81.1893C150.971 81.0436 148.42 80.4933 146.099 79.5386C143.778 78.5838 141.762 77.2925 140.053 75.6648C138.378 74.0069 137.1 72.0974 136.22 69.9364C135.341 67.7434 134.97 65.3527 135.106 62.7642C135.238 60.2397 135.871 57.9497 137.004 55.8942C138.137 53.8386 139.623 52.074 141.463 50.6003C143.303 49.1265 145.426 48.0362 147.835 47.3293C150.275 46.624 152.869 46.3434 155.618 46.4874C157.567 46.5896 159.424 46.9272 161.188 47.5004C162.986 48.0432 164.631 48.7543 166.123 49.6336C167.649 50.4826 168.929 51.4309 169.964 52.4785L164.892 58.4612C164.099 57.6827 163.223 56.9798 162.262 56.3527C161.303 55.6936 160.21 55.1557 158.982 54.7388C157.786 54.3237 156.421 54.0759 154.888 53.9955C153.482 53.9218 152.128 54.0752 150.826 54.4556C149.526 54.804 148.326 55.382 147.226 56.1896C146.16 56.9668 145.291 57.9627 144.618 59.1772C143.948 60.3597 143.571 61.7339 143.489 63.2997C143.407 64.8656 143.653 66.2884 144.227 67.5682C144.802 68.816 145.61 69.8998 146.652 70.8196C147.695 71.7074 148.908 72.4118 150.29 72.9329C151.706 73.4237 153.213 73.7109 154.811 73.7947C156.345 73.8751 157.73 73.7394 158.966 73.3876C160.236 73.0055 161.382 72.5368 162.405 71.9816C163.429 71.3944 164.324 70.8164 165.091 70.2478L168.645 76.7307C167.706 77.5146 166.449 78.2659 164.873 78.9844C163.33 79.7046 161.601 80.2869 159.687 80.7313C157.775 81.1438 155.796 81.2965 153.751 81.1893ZM169.437 81.5307L171.195 47.9768L189.075 48.9138C191.567 49.0444 193.701 49.6048 195.476 50.5951C197.25 51.5853 198.59 52.9213 199.495 54.6029C200.434 56.2543 200.848 58.1506 200.735 60.2916C200.625 62.4007 199.981 64.2896 198.804 65.9583C197.661 67.5967 196.137 68.8467 194.234 69.7083C192.33 70.5698 190.228 70.9403 187.927 70.8197L177.813 70.2897L177.202 81.9377L169.437 81.5307ZM191.87 82.7064L182.31 67.0166L190.857 66.2628L201.313 83.2013L191.87 82.7064ZM178.139 64.0582L187.343 64.5405C188.301 64.5908 189.158 64.4434 189.913 64.0985C190.668 63.7535 191.271 63.2564 191.722 62.6071C192.204 61.9595 192.469 61.1882 192.516 60.2935C192.563 59.3987 192.379 58.62 191.966 57.9575C191.553 57.2629 190.957 56.719 190.176 56.3256C189.428 55.9339 188.542 55.7112 187.52 55.6576L178.604 55.1904L178.139 64.0582ZM203.197 83.3L204.955 49.746L232.613 51.1955L232.249 58.146L212.5 57.111L211.47 76.764L231.699 77.8242L231.334 84.7746L203.197 83.3ZM208.04 69.7589L208.387 63.144L229.766 64.2644L229.419 70.8793L208.04 69.7589ZM229.214 84.6635L246.408 51.9185L253.837 52.3078L267.418 86.6657L259.029 86.2261L251.388 66.9357C251.138 66.2176 250.886 65.5155 250.634 64.8293C250.383 64.1112 250.146 63.4259 249.924 62.7734C249.704 62.0889 249.499 61.4053 249.311 60.7225C249.122 60.0397 248.949 59.3737 248.791 58.7245L250.519 58.767C250.258 59.4583 249.999 60.1337 249.74 60.793C249.481 61.4524 249.19 62.1101 248.867 62.7661C248.576 63.4237 248.27 64.0806 247.947 64.7366C247.626 65.3606 247.302 66.0326 246.976 66.7525L237.363 85.0906L229.214 84.6635ZM236.726 78.9048L239.684 72.9073L258.091 73.872L259.399 80.093L236.726 78.9048ZM273.077 86.9622L274.458 60.5984L262.379 59.9654L262.756 52.7752L295.351 54.4835L294.974 61.6736L282.607 61.0255L281.226 87.3893L273.077 86.9622ZM294.749 88.098L295.118 81.0517L302.884 81.4587L303.904 61.9974L296.138 61.5904L296.507 54.5441L320.283 55.7901L319.914 62.8364L312.052 62.4244L311.032 81.8857L318.894 82.2977L318.524 89.3441L294.749 88.098ZM333.139 90.11L320.182 55.7848L328.619 56.227L334.829 73.4716C335.051 74.1241 335.317 74.859 335.626 75.6764C335.938 76.4617 336.246 77.311 336.55 78.2242C336.888 79.1071 337.192 80.0363 337.461 81.0117C337.764 81.9569 338.019 82.9155 338.224 83.8876L336.546 83.7997C336.993 82.6054 337.454 81.46 337.928 80.3633C338.436 79.2363 338.942 78.1413 339.446 77.0782C339.984 75.9849 340.489 74.9058 340.962 73.8411L348.655 57.277L356.996 57.7141L340.713 90.5069L333.139 90.11ZM355.154 91.2637L355.523 84.2174L363.288 84.6243L364.308 65.1631L356.543 64.7561L356.912 57.7098L380.687 58.9558L380.318 66.0021L372.457 65.5901L371.437 85.0514L379.298 85.4634L378.929 92.5097L355.154 91.2637ZM392.154 93.2028L393.536 66.839L381.456 66.2059L381.833 59.0158L414.428 60.7241L414.051 67.9142L401.684 67.2661L400.303 93.6299L392.154 93.2028ZM424.6 94.9033L425.419 79.2767L425.97 82.526L410.684 60.5278L420.559 61.0453L431.789 77.8802L427.624 77.5657L440.02 62.0653L449.271 62.5501L433.049 82.2721L433.636 79.3228L432.797 95.3328L424.6 94.9033ZM458.97 96.7045L459.34 89.6582L467.105 90.0652L468.125 70.6039L460.36 70.1969L460.729 63.1506L484.504 64.3966L484.135 71.4429L476.274 71.0309L475.254 90.4922L483.115 90.9042L482.746 97.9505L458.97 96.7045ZM500.787 99.3767C498.231 99.2427 495.926 98.8816 493.874 98.2934C491.824 97.6733 489.991 96.8723 488.377 95.8904C486.763 94.8766 485.302 93.7265 483.991 92.4402L488.483 86.5231C490.618 88.5897 492.799 90.0819 495.026 90.9997C497.285 91.9192 499.501 92.4359 501.674 92.5497C502.696 92.6033 503.692 92.5594 504.661 92.4179C505.631 92.2444 506.448 91.9348 507.113 91.4889C507.81 91.0128 508.181 90.3593 508.225 89.5285C508.253 88.9852 508.117 88.5294 507.816 88.1612C507.516 87.761 507.085 87.4339 506.521 87.1801C505.991 86.896 505.347 86.6539 504.589 86.4539C503.864 86.2237 503.072 86.038 502.214 85.8969C501.358 85.7239 500.486 85.55 499.598 85.3753C497.534 85.0108 495.686 84.5134 494.053 83.883C492.419 83.2527 491.049 82.4919 489.943 81.6008C488.837 80.6777 488.011 79.625 487.464 78.4428C486.919 77.2286 486.686 75.8705 486.765 74.3685C486.85 72.7388 487.311 71.2889 488.146 70.0189C489.015 68.7186 490.177 67.6579 491.63 66.8368C493.084 65.9838 494.735 65.3653 496.581 64.9815C498.428 64.5976 500.39 64.4601 502.467 64.5689C504.8 64.6912 506.849 65.0229 508.615 65.5641C510.413 66.1069 511.979 66.7978 513.313 67.6368C514.647 68.4757 515.735 69.43 516.576 70.4995L511.981 75.642C511.128 74.7962 510.155 74.0883 509.064 73.5184C508.006 72.9182 506.861 72.4417 505.63 72.0888C504.431 71.7375 503.224 71.5301 502.009 71.4664C500.731 71.3994 499.59 71.4678 498.586 71.6715C497.616 71.845 496.831 72.1403 496.232 72.5576C495.666 72.9765 495.364 73.5375 495.327 74.2405C495.295 74.8477 495.508 75.3715 495.966 75.8121C496.423 76.2526 497.028 76.6368 497.78 76.9646C498.565 77.2621 499.417 77.515 500.336 77.7234C501.254 77.9317 502.174 78.1081 503.096 78.2526C504.936 78.6054 506.692 79.0338 508.364 79.538C510.069 80.012 511.558 80.6507 512.83 81.4544C514.135 82.2278 515.124 83.2249 515.797 84.4458C516.502 85.6684 516.806 87.2064 516.709 89.0598C516.585 91.4246 515.824 93.4035 514.427 94.9966C513.031 96.5577 511.144 97.7245 508.764 98.497C506.418 99.2392 503.759 99.5325 500.787 99.3767ZM529.964 100.425L530.333 93.3788L538.098 93.7858L539.118 74.3245L531.353 73.9175L531.722 66.8712L555.498 68.1172L555.128 75.1635L547.267 74.7515L546.247 94.2128L554.108 94.6248L553.739 101.671L529.964 100.425ZM558.144 101.902L559.903 68.348L567.476 68.745L588.126 93.8601L586.844 93.5526C586.745 92.3938 586.659 91.2838 586.586 90.2225C586.547 89.131 586.521 88.1042 586.507 87.1422C586.495 86.1482 586.483 85.1702 586.469 84.2082C586.487 83.2478 586.507 82.2555 586.529 81.2312C586.582 80.2086 586.638 79.1541 586.695 78.0676L587.129 69.7749L595.038 70.1894L593.28 103.743L585.61 103.341L564.234 77.4192L566.373 77.8677C566.456 78.7373 566.509 79.5572 566.533 80.3275C566.588 81.0994 566.643 81.8874 566.697 82.6913C566.753 83.4633 566.774 84.2815 566.761 85.146C566.78 86.0122 566.78 86.9254 566.761 87.8858C566.743 88.8461 566.703 89.9175 566.641 91.0999L566.053 102.316L558.144 101.902ZM606.107 104.416L607.489 78.0518L595.409 77.4188L595.786 70.2286L628.382 71.9369L628.005 79.127L615.638 78.4789L614.256 104.843L606.107 104.416ZM627.396 105.531L629.154 71.9774L656.812 73.4269L656.448 80.3773L636.699 79.3423L635.669 98.9954L655.898 100.055L655.533 107.006L627.396 105.531ZM632.239 91.9903L632.586 85.3753L653.965 86.4957L653.618 93.1107L632.239 91.9903ZM658.207 107.146L659.965 73.5921L668.114 74.0192L666.732 100.383L685.954 101.39L685.577 108.58L658.207 107.146ZM686.958 108.653L688.716 75.0989L696.865 75.5259L695.484 101.89L714.705 102.897L714.328 110.087L686.958 108.653ZM716.093 110.18L716.462 103.133L724.227 103.54L725.247 84.0791L717.482 83.6721L717.851 76.6258L741.626 77.8718L741.257 84.9181L733.396 84.5061L732.376 103.967L740.237 104.379L739.868 111.426L716.093 110.18ZM760.61 112.993C757.798 112.846 755.23 112.327 752.905 111.436C750.581 110.545 748.594 109.32 746.946 107.759C745.299 106.167 744.053 104.259 743.208 102.036C742.363 99.8124 742.013 97.3267 742.157 94.5784C742.287 92.0859 742.903 89.827 744.002 87.8017C745.135 85.7462 746.653 83.9833 748.557 82.5129C750.461 81.0425 752.665 79.9403 755.171 79.2065C757.709 78.4743 760.432 78.1844 763.34 78.3368C765.673 78.4591 767.784 78.8421 769.672 79.4858C771.595 80.0993 773.285 80.8608 774.744 81.7704C776.234 82.6816 777.433 83.6577 778.339 84.6986L773.118 89.8564C772.232 89.0409 771.275 88.3498 770.247 87.7832C769.221 87.1847 768.094 86.6771 766.866 86.2602C765.67 85.8451 764.353 85.5998 762.915 85.5244C761.253 85.4373 759.69 85.6118 758.225 86.0477C756.792 86.4853 755.524 87.1399 754.421 88.0113C753.32 88.8508 752.433 89.8778 751.76 91.0923C751.122 92.2765 750.764 93.5876 750.689 95.0256C750.599 96.7512 750.823 98.2851 751.361 99.6271C751.933 100.939 752.741 102.039 753.784 102.926C754.828 103.782 756.042 104.471 757.425 104.992C758.809 105.481 760.284 105.766 761.85 105.849C763.288 105.924 764.639 105.834 765.902 105.58C767.165 105.326 768.258 104.951 769.181 104.454C770.106 103.926 770.844 103.292 771.396 102.552C771.949 101.779 772.233 100.945 772.248 100.049L772.351 98.9967L773.308 100.921L761.468 100.301L761.799 93.9736L780.35 94.9458C780.39 95.3966 780.412 95.9104 780.413 96.4872C780.415 97.0641 780.404 97.5922 780.378 98.0716C780.353 98.5509 780.337 98.8705 780.328 99.0303C780.203 101.427 779.628 103.528 778.604 105.333C777.612 107.139 776.236 108.637 774.475 109.827C772.748 110.986 770.701 111.84 768.333 112.389C765.965 112.938 763.391 113.139 760.61 112.993ZM781.169 113.59L782.928 80.0363L810.586 81.4858L810.222 88.4363L790.473 87.4013L789.443 107.054L809.671 108.114L809.307 115.065L781.169 113.59ZM786.013 100.049L786.359 93.4343L807.738 94.5547L807.391 101.17L786.013 100.049ZM811.98 115.205L813.739 81.651L821.312 82.0479L841.962 107.163L840.68 106.856C840.581 105.697 840.495 104.587 840.422 103.526C840.383 102.434 840.357 101.407 840.344 100.445C840.332 99.4512 840.319 98.4732 840.305 97.5111C840.323 96.5508 840.343 95.5585 840.365 94.5342C840.418 93.5116 840.474 92.457 840.531 91.3705L840.965 83.0779L848.874 83.4924L847.116 117.046L839.446 116.644L818.07 90.7221L820.209 91.1707C820.292 92.0402 820.345 92.8601 820.369 93.6304C820.424 94.4024 820.479 95.1904 820.533 95.9943C820.589 96.7663 820.61 97.5845 820.597 98.449C820.616 99.3151 820.616 100.228 820.598 101.189C820.579 102.149 820.539 103.22 820.477 104.403L819.889 115.619L811.98 115.205ZM868.354 118.64C865.574 118.494 863.024 117.944 860.702 116.989C858.381 116.035 856.366 114.743 854.657 113.116C852.981 111.458 851.704 109.548 850.823 107.387C849.945 105.194 849.574 102.803 849.709 100.215C849.842 97.6905 850.474 95.4005 851.607 93.3449C852.741 91.2894 854.227 89.5248 856.067 88.0511C857.906 86.5773 860.03 85.487 862.438 84.7801C864.879 84.0748 867.473 83.7942 870.221 83.9382C872.171 84.0404 874.027 84.378 875.792 84.9512C877.59 85.494 879.235 86.2051 880.727 87.0844C882.253 87.9334 883.533 88.8817 884.567 89.9293L879.495 95.912C878.703 95.1335 877.827 94.4306 876.866 93.8035C875.907 93.1444 874.814 92.6065 873.586 92.1896C872.39 91.7745 871.025 91.5267 869.491 91.4463C868.085 91.3726 866.731 91.526 865.43 91.9064C864.13 92.2548 862.93 92.8328 861.83 93.6404C860.764 94.4176 859.894 95.4135 859.222 96.628C858.551 97.8105 858.175 99.1847 858.093 100.751C858.011 102.316 858.257 103.739 858.83 105.019C859.406 106.267 860.214 107.351 861.255 108.27C862.298 109.158 863.511 109.863 864.894 110.384C866.31 110.874 867.817 111.162 869.415 111.245C870.949 111.326 872.334 111.19 873.57 110.838C874.84 110.456 875.986 109.988 877.008 109.432C878.032 108.845 878.928 108.267 879.695 107.699L883.248 114.181C882.31 114.965 881.053 115.717 879.477 116.435C877.933 117.155 876.204 117.738 874.291 118.182C872.378 118.595 870.4 118.747 868.354 118.64ZM884.041 118.982L885.799 85.4276L913.457 86.8771L913.093 93.8275L893.344 92.7925L892.314 112.446L912.542 113.506L912.178 120.456L884.041 118.982ZM888.884 105.44L889.231 98.8255L910.609 99.9459L910.263 106.561L888.884 105.44ZM951.961 122.541L953.719 88.9871L961.868 89.4142L960.11 122.968L951.961 122.541ZM926.891 121.227L928.65 87.6733L936.799 88.1003L935.04 121.654L926.891 121.227ZM930.733 108.451L931.163 101.167L957.335 102.539L956.953 109.825L930.733 108.451ZM959.275 122.924L976.468 90.1793L983.898 90.5687L997.478 124.927L989.09 124.487L981.449 105.197C981.198 104.478 980.947 103.776 980.694 103.09C980.444 102.372 980.207 101.687 979.985 101.034C979.764 100.35 979.56 99.6661 979.371 98.9833C979.183 98.3005 979.01 97.6345 978.851 96.9854L980.579 97.0279C980.319 97.7192 980.059 98.3945 979.8 99.0539C979.541 99.7132 979.251 100.371 978.928 101.027C978.637 101.685 978.33 102.341 978.007 102.997C977.686 103.621 977.363 104.293 977.037 105.013L967.424 123.351L959.275 122.924ZM966.787 117.166L969.745 111.168L988.151 112.133L989.459 118.354L966.787 117.166ZM1003.31 125.232L990.353 90.907L998.789 91.3491L1005 108.594C1005.22 109.246 1005.49 109.981 1005.8 110.799C1006.11 111.584 1006.42 112.433 1006.72 113.346C1007.06 114.229 1007.36 115.158 1007.63 116.134C1007.94 117.079 1008.19 118.038 1008.39 119.01L1006.72 118.922C1007.16 117.728 1007.62 116.582 1008.1 115.485C1008.61 114.358 1009.11 113.263 1009.62 112.2C1010.15 111.107 1010.66 110.028 1011.13 108.963L1018.83 92.3992L1027.17 92.8363L1010.88 125.629L1003.31 125.232ZM1025.32 126.386L1025.69 119.34L1033.46 119.747L1034.48 100.285L1026.71 99.8783L1027.08 92.8319L1050.86 94.0779L1050.49 101.124L1042.63 100.712L1041.61 120.174L1049.47 120.586L1049.1 127.632L1025.32 126.386ZM1053.5 127.863L1055.26 94.3088L1062.84 94.7057L1083.49 119.821L1082.21 119.513C1082.11 118.355 1082.02 117.245 1081.95 116.183C1081.91 115.092 1081.88 114.065 1081.87 113.103C1081.86 112.109 1081.84 111.131 1081.83 110.169C1081.85 109.209 1081.87 108.216 1081.89 107.192C1081.94 106.169 1082 105.115 1082.06 104.028L1082.49 95.7357L1090.4 96.1502L1088.64 129.704L1080.97 129.302L1059.59 103.38L1061.73 103.828C1061.82 104.698 1061.87 105.518 1061.89 106.288C1061.95 107.06 1062 107.848 1062.06 108.652C1062.11 109.424 1062.13 110.242 1062.12 111.107C1062.14 111.973 1062.14 112.886 1062.12 113.847C1062.1 114.807 1062.06 115.878 1062 117.061L1061.41 128.277L1053.5 127.863ZM1109.69 131.288C1106.88 131.14 1104.31 130.621 1101.98 129.73C1099.66 128.84 1097.67 127.614 1096.02 126.053C1094.38 124.461 1093.13 122.553 1092.29 120.33C1091.44 118.107 1091.09 115.621 1091.23 112.873C1091.36 110.38 1091.98 108.121 1093.08 106.096C1094.21 104.041 1095.73 102.278 1097.63 100.807C1099.54 99.3368 1101.74 98.2347 1104.25 97.5009C1106.79 96.7687 1109.51 96.4788 1112.42 96.6312C1114.75 96.7534 1116.86 97.1364 1118.75 97.7802C1120.67 98.3936 1122.36 99.1551 1123.82 100.065C1125.31 100.976 1126.51 101.952 1127.42 102.993L1122.2 108.151C1121.31 107.335 1120.35 106.644 1119.32 106.078C1118.3 105.479 1117.17 104.971 1115.94 104.555C1114.75 104.139 1113.43 103.894 1111.99 103.819C1110.33 103.732 1108.77 103.906 1107.3 104.342C1105.87 104.78 1104.6 105.434 1103.5 106.306C1102.4 107.145 1101.51 108.172 1100.84 109.387C1100.2 110.571 1099.84 111.882 1099.77 113.32C1099.68 115.046 1099.9 116.579 1100.44 117.921C1101.01 119.233 1101.82 120.333 1102.86 121.221C1103.91 122.077 1105.12 122.765 1106.5 123.286C1107.89 123.775 1109.36 124.061 1110.93 124.143C1112.37 124.218 1113.72 124.129 1114.98 123.875C1116.24 123.62 1117.33 123.245 1118.26 122.749C1119.18 122.22 1119.92 121.586 1120.47 120.846C1121.03 120.074 1121.31 119.24 1121.32 118.343L1121.43 117.291L1122.38 119.216L1110.55 118.595L1110.88 112.268L1129.43 113.24C1129.47 113.691 1129.49 114.205 1129.49 114.782C1129.49 115.358 1129.48 115.887 1129.46 116.366C1129.43 116.845 1129.41 117.165 1129.41 117.325C1129.28 119.721 1128.71 121.822 1127.68 123.627C1126.69 125.434 1125.31 126.932 1123.55 128.121C1121.83 129.28 1119.78 130.134 1117.41 130.683C1115.04 131.232 1112.47 131.434 1109.69 131.288ZM1142.29 132.516L1144.04 98.9616L1152.19 99.3887L1150.44 132.943L1142.29 132.516ZM1146.35 120.135L1146.7 113.329L1168.13 114.451L1167.77 121.258L1146.35 120.135ZM1147.5 106.353L1147.88 99.1626L1170.84 100.366L1170.46 107.556L1147.5 106.353ZM1187.5 135.174C1184.21 135.001 1181.36 134.195 1178.93 132.754C1176.54 131.315 1174.7 129.424 1173.41 127.081C1172.16 124.708 1171.61 122.052 1171.76 119.112L1172.74 100.466L1180.99 100.898L1180.02 119.256C1179.94 120.854 1180.22 122.295 1180.85 123.578C1181.52 124.863 1182.46 125.889 1183.67 126.658C1184.91 127.428 1186.32 127.854 1187.88 127.936C1189.51 128.021 1190.99 127.746 1192.3 127.11C1193.62 126.474 1194.67 125.552 1195.47 124.344C1196.31 123.138 1196.76 121.736 1196.85 120.138L1197.81 101.779L1205.77 102.196L1204.79 120.843C1204.64 123.783 1203.8 126.366 1202.27 128.593C1200.78 130.79 1198.75 132.479 1196.19 133.658C1193.66 134.839 1190.76 135.345 1187.5 135.174ZM1207.75 135.946L1209.5 102.392L1217.08 102.789L1237.73 127.904L1236.45 127.597C1236.35 126.438 1236.26 125.328 1236.19 124.267C1236.15 123.175 1236.12 122.148 1236.11 121.186C1236.1 120.192 1236.08 119.214 1236.07 118.252C1236.09 117.292 1236.11 116.3 1236.13 115.275C1236.18 114.253 1236.24 113.198 1236.3 112.112L1236.73 103.819L1244.64 104.234L1242.88 137.788L1235.21 137.386L1213.84 111.463L1215.98 111.912C1216.06 112.781 1216.11 113.601 1216.14 114.372C1216.19 115.144 1216.25 115.932 1216.3 116.736C1216.36 117.507 1216.38 118.326 1216.36 119.19C1216.38 120.056 1216.38 120.97 1216.36 121.93C1216.35 122.89 1216.31 123.962 1216.24 125.144L1215.66 136.361L1207.75 135.946ZM1251.08 138.746C1249.39 138.657 1248.11 138.222 1247.26 137.44C1246.43 136.628 1246.06 135.551 1246.13 134.209C1246.19 133.026 1246.69 132.043 1247.63 131.259C1248.57 130.443 1249.87 130.079 1251.53 130.166C1253.26 130.256 1254.55 130.708 1255.4 131.522C1256.25 132.336 1256.65 133.414 1256.58 134.756C1256.52 135.907 1256 136.889 1255.03 137.703C1254.09 138.487 1252.77 138.835 1251.08 138.746Z" fill="#0A0430"/>
<path d="M5.73686 7.86231C5.95365 3.72585 9.48265 0.548323 13.6191 0.765106L1384.34 72.6017C1388.48 72.8185 1391.66 76.3475 1391.44 80.484C1391.51 79.1051 1389.34 77.8702 1386.58 77.7257L13.3574 5.75825C11.9786 5.68599 10.8023 6.74517 10.73 8.12399L5.73686 7.86231ZM1386.21 180.347L2.99984 107.856L1386.21 180.347ZM7.99299 108.118C3.85653 107.901 0.679005 104.372 0.895787 100.236L5.73686 7.86231C5.95365 3.72585 9.48265 0.548323 13.6191 0.765106L13.3574 5.75825C11.9786 5.68599 10.8023 6.74517 10.73 8.12399L5.7581 102.994C5.61357 105.751 6.61417 108.046 7.99299 108.118ZM1391.7 75.4908L1386.21 180.347L1391.7 75.4908Z" fill="#0A0430"/>
</g>
<g filter="url(#filter1_d_327_278)">
<rect x="3" y="75.4908" width="1385.11" height="105" rx="5" transform="rotate(-3 3 75.4908)" fill="#FFF301" shape-rendering="crispEdges"/>
<path d="M155.633 138.068C152.853 138.214 150.259 137.933 147.85 137.227C145.442 136.52 143.303 135.446 141.433 134.006C139.593 132.532 138.123 130.767 137.022 128.71C135.919 126.62 135.3 124.282 135.164 121.693C135.032 119.169 135.421 116.825 136.334 114.662C137.246 112.5 138.539 110.589 140.215 108.931C141.89 107.273 143.889 105.967 146.21 105.012C148.563 104.056 151.114 103.506 153.862 103.361C155.811 103.259 157.693 103.401 159.508 103.787C161.353 104.138 163.063 104.674 164.639 105.392C166.245 106.077 167.617 106.886 168.756 107.82L164.337 114.3C163.468 113.609 162.523 113.001 161.502 112.478C160.479 111.923 159.336 111.502 158.071 111.216C156.838 110.928 155.455 110.824 153.921 110.905C152.515 110.978 151.184 111.272 149.93 111.787C148.673 112.269 147.54 112.97 146.531 113.888C145.552 114.772 144.791 115.853 144.25 117.131C143.706 118.378 143.475 119.784 143.557 121.349C143.639 122.915 144.033 124.305 144.737 125.517C145.44 126.698 146.357 127.692 147.489 128.497C148.619 129.271 149.899 129.845 151.328 130.219C152.788 130.559 154.317 130.687 155.915 130.603C157.449 130.523 158.812 130.243 160.004 129.764C161.227 129.252 162.318 128.666 163.277 128.007C164.234 127.315 165.064 126.647 165.767 126.001L169.979 132.077C169.128 132.955 167.956 133.834 166.464 134.713C165.004 135.591 163.346 136.35 161.489 136.992C159.63 137.603 157.678 137.961 155.633 138.068ZM171.269 136.768L169.51 103.214L187.39 102.277C189.882 102.147 192.063 102.481 193.931 103.28C195.8 104.08 197.272 105.268 198.348 106.846C199.454 108.39 200.064 110.233 200.176 112.374C200.286 114.483 199.844 116.429 198.847 118.211C197.882 119.96 196.497 121.363 194.694 122.419C192.891 123.474 190.839 124.063 188.538 124.183L178.424 124.713L179.034 136.361L171.269 136.768ZM193.702 135.593L182.554 120.988L190.976 119.345L203.145 135.098L193.702 135.593ZM178.097 118.482L187.301 118C188.259 117.949 189.096 117.713 189.811 117.291C190.526 116.869 191.073 116.312 191.454 115.619C191.866 114.924 192.049 114.13 192.002 113.235C191.955 112.34 191.691 111.585 191.21 110.969C190.727 110.322 190.077 109.843 189.26 109.533C188.475 109.222 187.571 109.093 186.548 109.147L177.632 109.614L178.097 118.482ZM205.029 134.999L203.27 101.445L230.928 99.9955L231.293 106.946L211.544 107.981L212.574 127.634L232.802 126.574L233.166 133.524L205.029 134.999ZM208.43 121.026L208.083 114.411L229.462 113.29L229.809 119.905L208.43 121.026ZM231.046 133.635L244.723 99.2726L252.152 98.8832L269.25 131.633L260.861 132.073L251.246 113.687C250.921 112.999 250.598 112.327 250.275 111.671C249.951 110.983 249.644 110.326 249.355 109.7C249.064 109.043 248.789 108.384 248.53 107.725C248.271 107.066 248.029 106.421 247.804 105.792L249.527 105.654C249.34 106.369 249.153 107.067 248.964 107.75C248.775 108.433 248.555 109.118 248.303 109.804C248.082 110.488 247.846 111.173 247.593 111.86C247.339 112.514 247.088 113.216 246.838 113.966L239.195 133.208L231.046 133.635ZM237.915 127.123L240.23 120.849L258.636 119.885L260.588 125.935L237.915 127.123ZM274.909 131.337L273.527 104.973L261.448 105.606L261.071 98.4158L293.666 96.7076L294.043 103.898L281.676 104.546L283.057 130.91L274.909 131.337ZM296.581 130.201L296.212 123.155L303.977 122.748L302.957 103.286L295.192 103.693L294.822 96.647L318.598 95.401L318.967 102.447L311.106 102.859L312.126 122.321L319.987 121.909L320.356 128.955L296.581 130.201ZM334.971 128.189L318.497 95.4063L326.933 94.9641L334.912 111.465C335.201 112.091 335.542 112.794 335.936 113.574C336.327 114.323 336.723 115.135 337.121 116.012C337.55 116.855 337.949 117.747 338.319 118.689C338.719 119.597 339.072 120.524 339.378 121.469L337.7 121.557C338.02 120.323 338.358 119.135 338.715 117.995C339.102 116.821 339.491 115.679 339.881 114.569C340.302 113.426 340.692 112.3 341.05 111.192L346.97 93.914L355.311 93.4769L342.545 127.792L334.971 128.189ZM356.985 127.035L356.616 119.989L364.382 119.582L363.362 100.121L355.596 100.528L355.227 93.4813L379.002 92.2353L379.372 99.2816L371.51 99.6936L372.53 119.155L380.392 118.743L380.761 125.789L356.985 127.035ZM393.986 125.096L392.604 98.7323L380.525 99.3654L380.148 92.1753L412.743 90.467L413.12 97.6572L400.753 98.3053L402.135 124.669L393.986 125.096ZM426.432 123.396L425.613 107.769L426.5 110.943L408.999 90.6632L418.874 90.1457L431.802 105.714L427.627 105.837L438.335 89.1258L447.586 88.641L433.514 109.951L433.79 106.956L434.629 122.966L426.432 123.396ZM460.802 121.594L460.433 114.548L468.198 114.141L467.179 94.6799L459.413 95.0868L459.044 88.0405L482.819 86.7945L483.189 93.8408L475.327 94.2528L476.347 113.714L484.208 113.302L484.578 120.348L460.802 121.594ZM502.669 119.881C500.113 120.015 497.783 119.897 495.681 119.526C493.577 119.124 491.671 118.519 489.962 117.711C488.252 116.871 486.678 115.88 485.24 114.738L489.089 108.384C491.428 110.216 493.753 111.472 496.064 112.152C498.406 112.83 500.664 113.113 502.837 112.999C503.86 112.945 504.845 112.797 505.794 112.555C506.741 112.281 507.522 111.888 508.136 111.375C508.78 110.829 509.08 110.14 509.037 109.309C509.008 108.766 508.825 108.327 508.487 107.992C508.147 107.625 507.684 107.345 507.097 107.152C506.54 106.925 505.874 106.751 505.099 106.632C504.354 106.478 503.548 106.376 502.68 106.326C501.81 106.243 500.925 106.161 500.023 106.081C497.933 105.934 496.042 105.632 494.352 105.176C492.662 104.72 491.22 104.107 490.026 103.336C488.83 102.533 487.899 101.573 487.231 100.454C486.562 99.3037 486.188 97.9775 486.11 96.4756C486.024 94.8458 486.331 93.3557 487.029 92.0053C487.757 90.6213 488.801 89.445 490.16 88.4766C491.518 87.4762 493.095 86.6886 494.891 86.1138C496.688 85.539 498.624 85.1971 500.702 85.0883C503.034 84.966 505.107 85.0817 506.92 85.4353C508.765 85.7872 510.395 86.3106 511.809 87.0056C513.223 87.7005 514.405 88.5358 515.353 89.5115L511.32 95.1062C510.384 94.3542 509.343 93.7519 508.198 93.2992C507.083 92.8129 505.894 92.4586 504.633 92.2363C503.404 92.0123 502.182 91.9322 500.967 91.9958C499.689 92.0628 498.561 92.2501 497.584 92.5576C496.637 92.8316 495.888 93.2073 495.336 93.6848C494.816 94.1607 494.575 94.7502 494.612 95.4532C494.644 96.0604 494.91 96.5591 495.411 96.9494C495.912 97.3397 496.554 97.6586 497.336 97.906C498.148 98.1198 499.022 98.2823 499.957 98.3935C500.892 98.5047 501.825 98.5839 502.757 98.6312C504.624 98.7898 506.415 99.0323 508.131 99.359C509.876 99.6521 511.424 100.132 512.772 100.798C514.151 101.431 515.239 102.319 516.036 103.463C516.865 104.605 517.328 106.103 517.425 107.956C517.549 110.321 517 112.369 515.777 114.099C514.552 115.797 512.796 117.155 510.511 118.172C508.255 119.156 505.641 119.725 502.669 119.881ZM531.796 117.874L531.426 110.828L539.192 110.421L538.172 90.9593L530.406 91.3662L530.037 84.3199L553.812 83.0739L554.182 90.1202L546.321 90.5322L547.34 109.994L555.202 109.582L555.571 116.628L531.796 117.874ZM559.976 116.397L558.218 82.843L565.791 82.4461L588.953 105.265L587.646 105.093C587.426 103.951 587.225 102.856 587.042 101.808C586.889 100.727 586.755 99.7086 586.641 98.7533C586.525 97.766 586.41 96.7947 586.296 95.8393C586.214 94.8823 586.13 93.8933 586.045 92.8724C585.991 91.8498 585.936 90.7953 585.879 89.7088L585.444 81.4161L593.353 81.0016L595.112 114.556L587.442 114.958L563.473 91.4117L565.648 91.6342C565.821 92.4903 565.959 93.3002 566.064 94.0638C566.2 94.8257 566.337 95.6036 566.474 96.3975C566.61 97.1594 566.717 97.9709 566.794 98.8321C566.903 99.6916 566.999 100.6 567.081 101.557C567.163 102.514 567.235 103.584 567.297 104.766L567.885 115.982L559.976 116.397ZM607.939 113.883L606.557 87.5195L594.478 88.1526L594.101 80.9625L626.696 79.2542L627.073 86.4443L614.706 87.0925L616.088 113.456L607.939 113.883ZM629.228 112.768L627.469 79.2137L655.127 77.7642L655.492 84.7147L635.743 85.7497L636.773 105.403L657.001 104.343L657.365 111.293L629.228 112.768ZM632.629 98.7945L632.283 92.1796L653.661 91.0592L654.008 97.6741L632.629 98.7945ZM660.039 111.153L658.28 77.599L666.429 77.1719L667.811 103.536L687.032 102.528L687.409 109.718L660.039 111.153ZM688.79 109.646L687.031 76.0922L695.18 75.6651L696.562 102.029L715.784 101.022L716.16 108.212L688.79 109.646ZM717.925 108.119L717.555 101.073L725.321 100.666L724.301 81.2047L716.535 81.6116L716.166 74.5653L739.941 73.3193L740.311 80.3656L732.45 80.7776L733.469 100.239L741.331 99.8269L741.7 106.873L717.925 108.119ZM762.493 106.264C759.68 106.412 757.072 106.164 754.667 105.521C752.262 104.878 750.158 103.866 748.355 102.487C746.551 101.075 745.113 99.3083 744.04 97.1855C742.968 95.0627 742.359 92.6272 742.215 89.879C742.085 87.3864 742.46 85.0756 743.342 82.9465C744.254 80.7838 745.58 78.8718 747.319 77.2105C749.059 75.5492 751.136 74.2226 753.551 73.2309C755.999 72.2374 758.676 71.6645 761.584 71.5121C763.917 71.3898 766.057 71.5501 768.002 71.9929C769.979 72.402 771.739 72.9827 773.285 73.7348C774.862 74.4853 776.156 75.3307 777.167 76.2711L772.514 81.9464C771.547 81.228 770.522 80.6408 769.441 80.1848C768.358 79.6968 767.184 79.3097 765.92 79.0235C764.687 78.7356 763.351 78.6294 761.913 78.7047C760.252 78.7918 758.715 79.1287 757.304 79.7154C755.925 80.3004 754.732 81.0839 753.726 82.0658C752.718 83.0159 751.944 84.13 751.402 85.4081C750.89 86.6525 750.672 87.9938 750.747 89.4318C750.838 91.1575 751.221 92.6595 751.897 93.9378C752.603 95.1826 753.521 96.1919 754.651 96.9659C755.779 97.7078 757.058 98.2656 758.488 98.6393C759.916 98.9811 761.413 99.1109 762.979 99.0289C764.417 98.9535 765.75 98.7234 766.98 98.3385C768.209 97.9536 769.257 97.4661 770.124 96.876C770.988 96.2539 771.656 95.5459 772.127 94.7522C772.597 93.9265 772.792 93.0671 772.713 92.174L772.706 91.1169L773.858 92.9311L762.019 93.5516L761.687 87.2243L780.237 86.2521C780.325 86.6961 780.4 87.2049 780.462 87.7784C780.524 88.352 780.567 88.8784 780.592 89.3578C780.618 89.8371 780.634 90.1567 780.643 90.3164C780.768 92.7132 780.416 94.8625 779.587 96.7645C778.789 98.6649 777.577 100.299 775.95 101.666C774.354 102.999 772.407 104.062 770.109 104.856C767.812 105.649 765.273 106.119 762.493 106.264ZM783.001 104.709L781.243 71.1548L808.901 69.7053L809.265 76.6557L789.516 77.6907L790.546 97.3438L810.774 96.2837L811.139 103.234L783.001 104.709ZM786.403 90.7356L786.056 84.1206L807.435 83.0002L807.781 89.6152L786.403 90.7356ZM813.812 103.094L812.054 69.54L819.627 69.1431L842.789 91.9622L841.482 91.7904C841.262 90.6483 841.061 89.5534 840.878 88.5055C840.725 87.424 840.591 86.4056 840.477 85.4503C840.361 84.463 840.246 83.4917 840.132 82.5363C840.05 81.5793 839.966 80.5904 839.881 79.5694C839.827 78.5468 839.772 77.4923 839.715 76.4058L839.28 68.1132L847.189 67.6987L848.948 101.253L841.278 101.655L817.309 78.1087L819.484 78.3312C819.657 79.1873 819.796 79.9972 819.9 80.7608C820.036 81.5227 820.173 82.3006 820.31 83.0945C820.446 83.8564 820.553 84.668 820.63 85.5291C820.739 86.3886 820.835 87.2968 820.917 88.2538C820.999 89.2108 821.071 90.2805 821.133 91.4629L821.721 102.68L813.812 103.094ZM870.237 100.618C867.456 100.763 864.862 100.483 862.454 99.7757C860.046 99.0688 857.907 97.9953 856.037 96.5552C854.197 95.0814 852.727 93.316 851.625 91.2588C850.522 89.1696 849.903 86.8308 849.768 84.2424C849.635 81.7179 850.025 79.3742 850.937 77.2116C851.849 75.0489 853.143 73.1385 854.819 71.4806C856.494 69.8226 858.493 68.5162 860.814 67.5614C863.167 66.605 865.718 66.0547 868.466 65.9107C870.415 65.8085 872.297 65.9502 874.112 66.3358C875.957 66.6877 877.667 67.2229 879.243 67.9414C880.849 68.6263 882.221 69.4356 883.36 70.3693L878.941 76.8495C878.071 76.158 877.126 75.5507 876.105 75.0274C875.083 74.4721 873.939 74.0514 872.675 73.7652C871.442 73.4773 870.059 73.3736 868.525 73.4539C867.119 73.5276 865.788 73.8217 864.533 74.336C863.277 74.8185 862.144 75.5187 861.135 76.4368C860.156 77.3212 859.395 78.4025 858.853 79.6806C858.31 80.9268 858.079 82.3328 858.161 83.8986C858.243 85.4645 858.636 86.8538 859.341 88.0666C860.044 89.2475 860.961 90.2408 862.093 91.0467C863.223 91.8206 864.502 92.3944 865.932 92.7681C867.392 93.1082 868.921 93.2363 870.518 93.1526C872.052 93.0722 873.415 92.7925 874.608 92.3134C875.831 91.8007 876.922 91.2148 877.881 90.5557C878.838 89.8647 879.668 89.1963 880.371 88.5506L884.583 94.6265C883.732 95.5043 882.56 96.3828 881.068 97.2621C879.608 98.1397 877.949 98.8996 876.092 99.5416C874.234 100.152 872.282 100.51 870.237 100.618ZM885.873 99.3175L884.114 65.7635L911.772 64.314L912.136 71.2645L892.387 72.2995L893.417 91.9525L913.646 90.8924L914.01 97.8429L885.873 99.3175ZM889.274 85.3443L888.927 78.7294L910.306 77.609L910.653 84.2239L889.274 85.3443ZM953.793 95.7579L952.034 62.204L960.183 61.7769L961.942 95.3309L953.793 95.7579ZM928.723 97.0718L926.965 63.5178L935.113 63.0908L936.872 96.6447L928.723 97.0718ZM931.209 83.9637L930.875 76.6752L957.047 75.3036L957.429 82.5896L931.209 83.9637ZM961.107 95.3746L974.783 61.0118L982.213 60.6224L999.31 93.3724L990.922 93.8121L981.306 75.4261C980.982 74.7381 980.658 74.0662 980.336 73.4102C980.011 72.7222 979.704 72.0653 979.415 71.4396C979.124 70.7819 978.85 70.1234 978.591 69.4641C978.332 68.8047 978.09 68.1605 977.865 67.5314L979.588 67.393C979.401 68.1078 979.213 68.8066 979.025 69.4894C978.836 70.1722 978.616 70.8567 978.363 71.5428C978.143 72.2273 977.906 72.9126 977.654 73.5988C977.4 74.253 977.148 74.9551 976.899 75.7052L969.256 94.9476L961.107 95.3746ZM967.975 88.8622L970.29 82.5885L988.697 81.6238L990.648 87.674L967.975 88.8622ZM1005.14 93.0668L988.668 60.2841L997.104 59.8419L1005.08 76.343C1005.37 76.9687 1005.71 77.6718 1006.11 78.4523C1006.5 79.2008 1006.89 80.0133 1007.29 80.8896C1007.72 81.7323 1008.12 82.6247 1008.49 83.5666C1008.89 84.4749 1009.24 85.4017 1009.55 86.347L1007.87 86.4349C1008.19 85.2005 1008.53 84.0132 1008.89 82.8729C1009.27 81.6991 1009.66 80.5571 1010.05 79.4472C1010.47 78.3036 1010.86 77.1777 1011.22 76.0694L1017.14 58.7919L1025.48 58.3548L1012.72 92.6699L1005.14 93.0668ZM1027.16 91.9131L1026.79 84.8668L1034.55 84.4598L1033.53 64.9985L1025.77 65.4055L1025.4 58.3591L1049.17 57.1131L1049.54 64.1595L1041.68 64.5714L1042.7 84.0327L1050.56 83.6208L1050.93 90.6671L1027.16 91.9131ZM1055.34 90.4362L1053.58 56.8823L1061.15 56.4854L1084.31 79.3044L1083.01 79.1326C1082.79 77.9905 1082.59 76.8956 1082.4 75.8477C1082.25 74.7662 1082.12 73.7478 1082 72.7925C1081.89 71.8052 1081.77 70.8339 1081.66 69.8786C1081.57 68.9216 1081.49 67.9326 1081.41 66.9117C1081.35 65.8891 1081.3 64.8345 1081.24 63.748L1080.8 55.4554L1088.71 55.0409L1090.47 88.5948L1082.8 88.9968L1058.83 65.451L1061.01 65.6735C1061.18 66.5296 1061.32 67.3394 1061.42 68.103C1061.56 68.8649 1061.7 69.6428 1061.84 70.4367C1061.97 71.1987 1062.08 72.0102 1062.15 72.8713C1062.26 73.7308 1062.36 74.639 1062.44 75.596C1062.52 76.553 1062.6 77.6227 1062.66 78.8051L1063.25 90.0217L1055.34 90.4362ZM1111.57 87.9698C1108.76 88.1172 1106.15 87.8694 1103.74 87.2264C1101.34 86.5834 1099.24 85.5721 1097.43 84.1925C1095.63 82.781 1094.19 81.0139 1093.12 78.8911C1092.04 76.7684 1091.44 74.3329 1091.29 71.5846C1091.16 69.092 1091.54 66.7812 1092.42 64.6522C1093.33 62.4895 1094.66 60.5774 1096.4 58.9161C1098.14 57.2548 1100.21 55.9283 1102.63 54.9365C1105.08 53.9431 1107.75 53.3701 1110.66 53.2177C1112.99 53.0955 1115.13 53.2557 1117.08 53.6985C1119.06 54.1076 1120.82 54.6883 1122.36 55.4404C1123.94 56.1909 1125.23 57.0363 1126.24 57.9767L1121.59 63.6521C1120.62 62.9337 1119.6 62.3465 1118.52 61.8904C1117.44 61.4025 1116.26 61.0154 1115 60.7292C1113.76 60.4413 1112.43 60.335 1110.99 60.4104C1109.33 60.4975 1107.79 60.8343 1106.38 61.421C1105 62.006 1103.81 62.7895 1102.8 63.7715C1101.8 64.7215 1101.02 65.8356 1100.48 67.1137C1099.97 68.3582 1099.75 69.6994 1099.82 71.1375C1099.92 72.8631 1100.3 74.3651 1100.97 75.6435C1101.68 76.8882 1102.6 77.8976 1103.73 78.6715C1104.86 79.4135 1106.14 79.9713 1107.57 80.345C1108.99 80.6867 1110.49 80.8166 1112.06 80.7345C1113.49 80.6591 1114.83 80.429 1116.06 80.0441C1117.29 79.6593 1118.33 79.1717 1119.2 78.5816C1120.07 77.9595 1120.73 77.2516 1121.2 76.4578C1121.67 75.6321 1121.87 74.7727 1121.79 73.8796L1121.78 72.8226L1122.94 74.6367L1111.1 75.2572L1110.76 68.9299L1129.31 67.9577C1129.4 68.4018 1129.48 68.9105 1129.54 69.4841C1129.6 70.0576 1129.64 70.5841 1129.67 71.0634C1129.69 71.5427 1129.71 71.8623 1129.72 72.0221C1129.85 74.4188 1129.49 76.5682 1128.66 78.4702C1127.87 80.3705 1126.65 82.0042 1125.03 83.3712C1123.43 84.7046 1121.48 85.768 1119.19 86.5613C1116.89 87.3546 1114.35 87.8241 1111.57 87.9698ZM1144.12 85.7834L1142.36 52.2294L1150.51 51.8024L1152.27 85.3563L1144.12 85.7834ZM1146.86 73.0463L1146.51 66.2396L1167.93 65.1167L1168.29 71.9233L1146.86 73.0463ZM1146.57 59.2186L1146.19 52.0285L1169.15 50.8252L1169.53 58.0153L1146.57 59.2186ZM1189.37 83.7004C1186.08 83.8729 1183.15 83.3694 1180.59 82.1898C1178.06 81.0085 1176.03 79.3203 1174.51 77.1251C1173.01 74.8963 1172.19 72.3119 1172.03 69.3719L1171.06 50.7255L1179.3 50.2934L1180.26 68.6522C1180.35 70.25 1180.77 71.6537 1181.54 72.8631C1182.34 74.0709 1183.38 74.9936 1184.67 75.6314C1185.98 76.2674 1187.42 76.5444 1188.99 76.4623C1190.62 76.3769 1192.05 75.9492 1193.29 75.1792C1194.54 74.4091 1195.49 73.3817 1196.16 72.0969C1196.86 70.8104 1197.17 69.3683 1197.09 67.7705L1196.13 49.4117L1204.08 48.9947L1205.06 67.6411C1205.21 70.581 1204.65 73.2383 1203.36 75.6128C1202.11 77.9537 1200.27 79.8446 1197.84 81.2854C1195.45 82.7246 1192.63 83.5296 1189.37 83.7004ZM1209.58 82.3528L1207.82 48.7988L1215.39 48.4019L1238.56 71.221L1237.25 71.0491C1237.03 69.9071 1236.83 68.8121 1236.64 67.7643C1236.49 66.6828 1236.36 65.6644 1236.24 64.709C1236.13 63.7218 1236.01 62.7504 1235.9 61.7951C1235.82 60.8381 1235.73 59.8491 1235.65 58.8282C1235.59 57.8056 1235.54 56.7511 1235.48 55.6646L1235.05 47.3719L1242.96 46.9574L1244.71 80.5114L1237.04 80.9133L1213.08 57.3675L1215.25 57.59C1215.42 58.4461 1215.56 59.256 1215.67 60.0196C1215.8 60.7815 1215.94 61.5594 1216.08 62.3533C1216.21 63.1152 1216.32 63.9267 1216.4 64.7879C1216.51 65.6473 1216.6 66.5556 1216.68 67.5126C1216.77 68.4696 1216.84 69.5393 1216.9 70.7217L1217.49 81.9383L1209.58 82.3528ZM1252.97 80.6076C1251.27 80.6963 1249.96 80.3967 1249.03 79.7086C1248.12 78.9868 1247.64 77.9549 1247.57 76.6127C1247.5 75.4304 1247.9 74.4003 1248.75 73.5225C1249.6 72.6128 1250.86 72.1144 1252.52 72.0274C1254.24 71.9369 1255.57 72.2517 1256.51 72.9718C1257.44 73.6918 1257.95 74.7229 1258.02 76.0651C1258.08 77.2155 1257.67 78.2464 1256.78 79.1578C1255.93 80.0356 1254.66 80.5188 1252.97 80.6076Z" fill="#0A0430"/>
<rect x="3" y="75.4908" width="1385.11" height="105" rx="5" transform="rotate(-3 3 75.4908)" stroke="#0A0430" stroke-width="5" shape-rendering="crispEdges"/>
</g>
<defs>
<filter id="filter0_d_327_278" x="0.885254" y="0.754639" width="1402.82" height="191.592" filterUnits="userSpaceOnUse" color-interpolation-filters="sRGB">
<feFlood flood-opacity="0" result="BackgroundImageFix"/>
<feColorMatrix in="SourceAlpha" type="matrix" values="0 0 0 0 0 0 0 0 0 0 0 0 0 0 0 0 0 0 127 0" result="hardAlpha"/>
<feOffset dx="12" dy="12"/>
<feComposite in2="hardAlpha" operator="out"/>
<feColorMatrix type="matrix" values="0 0 0 0 0.0862745 0 0 0 0 0.0862745 0 0 0 0 0.0862745 0 0 0 1 0"/>
<feBlend mode="normal" in2="BackgroundImageFix" result="effect1_dropShadow_327_278"/>
<feBlend mode="normal" in="SourceGraphic" in2="effect1_dropShadow_327_278" result="shape"/>
</filter>
<filter id="filter1_d_327_278" x="0.754883" y="0.754639" width="1405.19" height="193.838" filterUnits="userSpaceOnUse" color-interpolation-filters="sRGB">
<feFlood flood-opacity="0" result="BackgroundImageFix"/>
<feColorMatrix in="SourceAlpha" type="matrix" values="0 0 0 0 0 0 0 0 0 0 0 0 0 0 0 0 0 0 127 0" result="hardAlpha"/>
<feOffset dx="12" dy="12"/>
<feComposite in2="hardAlpha" operator="out"/>
<feColorMatrix type="matrix" values="0 0 0 0 0.0862745 0 0 0 0 0.0862745 0 0 0 0 0.0862745 0 0 0 1 0"/>
<feBlend mode="normal" in2="BackgroundImageFix" result="effect1_dropShadow_327_278"/>
<feBlend mode="normal" in="SourceGraphic" in2="effect1_dropShadow_327_278" result="shape"/>
</filter>
</defs>
</svg>
