<svg width="101" height="101" viewBox="0 0 101 101" fill="none" xmlns="http://www.w3.org/2000/svg">
<circle cx="50.5" cy="50.5" r="50.5" fill="#FF006B"/>
<path d="M62.856 72V65.568C59.784 70.464 53.544 72.96 47.784 72.96C35.784 72.96 25.032 63.84 25.032 49.536C25.032 35.232 35.784 26.208 47.784 26.208C53.16 26.208 59.784 28.416 62.856 33.504V27.168H72.648V72H62.856ZM35.208 49.44C35.208 57.696 41.544 63.36 48.936 63.36C56.232 63.36 62.76 58.272 62.76 49.44C62.76 40.704 55.656 35.808 48.936 35.808C41.544 35.808 35.208 41.184 35.208 49.44Z" fill="#F9F9F9"/>
</svg>
