<svg width="100" height="14" viewBox="0 0 100 14" fill="none" xmlns="http://www.w3.org/2000/svg">
<path d="M9.9 13V11.325C9.1 12.6 7.475 13.25 5.975 13.25C2.85 13.25 0.0500001 10.875 0.0500001 7.15C0.0500001 3.425 2.85 1.075 5.975 1.075C7.375 1.075 9.1 1.65 9.9 2.975V1.325H12.45V13H9.9ZM2.7 7.125C2.7 9.275 4.35 10.75 6.275 10.75C8.175 10.75 9.875 9.425 9.875 7.125C9.875 4.85 8.025 3.575 6.275 3.575C4.35 3.575 2.7 4.975 2.7 7.125ZM18.6338 6.725V13H16.0588V1.325H18.6338V3.075C19.3088 1.75 20.9338 1.075 22.2088 1.075C25.0338 1.075 26.6588 2.875 26.6588 6.2V13H24.0838V6.5C24.0838 4.625 23.1338 3.6 21.6338 3.6C20.1088 3.6 18.6338 4.425 18.6338 6.725ZM32.7207 6.725V13H30.1457V1.325H32.7207V3.075C33.3957 1.75 35.0207 1.075 36.2957 1.075C39.1207 1.075 40.7457 2.875 40.7457 6.2V13H38.1707V6.5C38.1707 4.625 37.2207 3.6 35.7207 3.6C34.1957 3.6 32.7207 4.425 32.7207 6.725ZM43.5846 0.0219997H46.0866V13H43.5846V0.0219997ZM58.1314 13V11.325C57.3314 12.6 55.7064 13.25 54.2064 13.25C51.0814 13.25 48.2814 10.875 48.2814 7.15C48.2814 3.425 51.0814 1.075 54.2064 1.075C55.6064 1.075 57.3314 1.65 58.1314 2.975V1.325H60.6814V13H58.1314ZM50.9314 7.125C50.9314 9.275 52.5814 10.75 54.5064 10.75C56.4064 10.75 58.1064 9.425 58.1064 7.125C58.1064 4.85 56.2564 3.575 54.5064 3.575C52.5814 3.575 50.9314 4.975 50.9314 7.125ZM72.1652 7.6V1.325H74.7402V13H72.1652V11.3C71.4902 12.625 69.9152 13.25 68.6902 13.25C65.8152 13.25 64.1402 11.45 64.1652 8.125V1.325H66.7402V7.825C66.7402 9.75 67.7652 10.75 69.1652 10.75C70.6652 10.75 72.1652 9.925 72.1652 7.6ZM80.9033 8.8V13H78.3283V1.325H80.9033V4C81.5033 1.9 82.6283 1.075 84.1033 1.075C84.9283 1.075 85.8033 1.25 86.1783 1.525L85.7533 3.9C85.0783 3.575 84.5283 3.5 84.0283 3.5C81.8283 3.5 80.9033 5.7 80.9033 8.8ZM97.1695 13V11.325C96.3695 12.6 94.7445 13.25 93.2445 13.25C90.1195 13.25 87.3195 10.875 87.3195 7.15C87.3195 3.425 90.1195 1.075 93.2445 1.075C94.6445 1.075 96.3695 1.65 97.1695 2.975V1.325H99.7195V13H97.1695ZM89.9695 7.125C89.9695 9.275 91.6195 10.75 93.5445 10.75C95.4445 10.75 97.1445 9.425 97.1445 7.125C97.1445 4.85 95.2945 3.575 93.5445 3.575C91.6195 3.575 89.9695 4.975 89.9695 7.125Z" fill="#0A0430"/>
</svg>
