<svg width="1440" height="199" viewBox="0 0 1440 199" fill="none" xmlns="http://www.w3.org/2000/svg">
<path fill-rule="evenodd" clip-rule="evenodd" d="M1440.2 4.83046L1413.48 14.0766C1386.77 23.3228 1332.12 41.8151 1278.69 64.9306C1224.05 88.046 1170.62 115.784 1115.97 92.6691C1062.54 69.5536 1007.9 -4.41571 954.467 0.207379C901.036 4.83046 846.391 88.046 792.96 115.784C738.315 143.523 684.885 115.784 630.24 106.538C576.809 97.2922 522.164 106.538 468.733 120.408C415.303 134.277 360.658 152.769 307.227 152.769C252.582 152.769 199.151 134.277 144.506 111.161C91.0757 88.046 36.4306 60.3075 9.71531 46.4382L-16.9999 32.569V199H9.71531C36.4306 199 91.0757 199 144.506 199C199.151 199 252.582 199 307.227 199C360.658 199 415.303 199 468.733 199C522.164 199 576.809 199 630.24 199C684.885 199 738.315 199 792.96 199C846.391 199 901.036 199 954.467 199C1007.9 199 1062.54 199 1115.97 199C1170.62 199 1224.05 199 1278.69 199C1332.12 199 1386.77 199 1413.48 199H1440.2V4.83046Z" fill="#FF006B"/>
</svg>
