<svg width="1440" height="205" viewBox="0 0 1440 205" fill="none" xmlns="http://www.w3.org/2000/svg">
<path fill-rule="evenodd" clip-rule="evenodd" d="M0 200.024L26.7153 190.499C53.4307 180.974 108.076 161.924 161.506 138.112C216.151 114.299 269.582 85.7245 324.227 109.537C377.658 133.349 432.303 209.549 485.733 204.786C539.164 200.024 593.809 114.299 647.24 85.7245C701.885 57.1497 755.315 85.7245 809.96 95.2495C863.391 104.774 918.036 95.2495 971.467 80.962C1024.9 66.6746 1079.54 47.6247 1132.97 47.6247C1187.62 47.6247 1241.05 66.6746 1295.69 90.487C1349.12 114.299 1403.77 142.874 1430.48 157.162L1457.2 171.449V1.3173e-06H1430.48C1403.77 1.3173e-06 1349.12 1.3173e-06 1295.69 1.3173e-06C1241.05 1.3173e-06 1187.62 1.3173e-06 1132.97 1.3173e-06C1079.54 1.3173e-06 1024.9 1.3173e-06 971.467 1.3173e-06C918.036 1.3173e-06 863.391 1.3173e-06 809.96 1.3173e-06C755.315 1.3173e-06 701.885 1.3173e-06 647.24 1.3173e-06C593.809 1.3173e-06 539.164 1.3173e-06 485.733 1.3173e-06C432.303 1.3173e-06 377.658 1.3173e-06 324.227 1.3173e-06C269.582 1.3173e-06 216.151 1.3173e-06 161.506 1.3173e-06C108.076 1.3173e-06 53.4307 1.3173e-06 26.7153 1.3173e-06H0L0 200.024Z" fill="#FF006B"/>
</svg>
